<?xml version="1.0" encoding="UTF-8" standalone="no"?>
<svg
   xmlns:dc="http://purl.org/dc/elements/1.1/"
   xmlns:cc="http://creativecommons.org/ns#"
   xmlns:rdf="http://www.w3.org/1999/02/22-rdf-syntax-ns#"
   xmlns:svg="http://www.w3.org/2000/svg"
   xmlns="http://www.w3.org/2000/svg"
   id="svg8"
   version="1.1"
   viewBox="0 0 156.65578 48.64365"
   height="48.64365mm"
   width="156.65578mm">
  <defs
     id="defs2" />
  <metadata
     id="metadata5">
    <rdf:RDF>
      <cc:Work
         rdf:about="">
        <dc:format>image/svg+xml</dc:format>
        <dc:type
           rdf:resource="http://purl.org/dc/dcmitype/StillImage" />
        <dc:title></dc:title>
      </cc:Work>
    </rdf:RDF>
  </metadata>
  <g
     transform="translate(-26.656881,-121.56202)"
     id="layer1">
    <flowRoot
       transform="scale(0.26458333)"
       style="font-style:normal;font-weight:normal;font-size:40px;line-height:1.25;font-family:sans-serif;letter-spacing:0px;word-spacing:0px;fill:#000000;fill-opacity:1;stroke:none"
       id="flowRoot823"
       xml:space="preserve"><flowRegion
         id="flowRegion825"><rect
           y="382.51968"
           x="265.71429"
           height="68.571426"
           width="122.85714"
           id="rect827" /></flowRegion><flowPara
         id="flowPara829"></flowPara></flowRoot>    <g
       id="flowRoot815"
       style="font-style:normal;font-weight:normal;font-size:40px;line-height:1.25;font-family:sans-serif;letter-spacing:0px;word-spacing:0px;fill:#000000;fill-opacity:1;stroke:none"
       transform="matrix(0.3259206,0,0,0.3259206,-23.872588,3.4796344)"
       aria-label="Lifeni">
      <path
         id="path839"
         style="font-style:normal;font-variant:normal;font-weight:normal;font-stretch:normal;font-size:192px;font-family:sans-serif;-inkscape-font-specification:'sans-serif, Normal';font-variant-ligatures:normal;font-variant-caps:normal;font-variant-numeric:normal;font-feature-settings:normal;text-align:center;writing-mode:lr-tb;text-anchor:middle"
         d="m 243.34863,509.11664 h -88.3125 V 369.52289 h 18.5625 v 123.09375 h 69.75 z" />
      <path
         id="path841"
         style="font-style:normal;font-variant:normal;font-weight:normal;font-stretch:normal;font-size:192px;font-family:sans-serif;-inkscape-font-specification:'sans-serif, Normal';font-variant-ligatures:normal;font-variant-caps:normal;font-variant-numeric:normal;font-feature-settings:normal;text-align:center;writing-mode:lr-tb;text-anchor:middle"
         d="m 279.44238,386.86664 h -19.875 v -18.28125 h 19.875 z m -1.125,122.25 h -17.625 V 404.39789 h 17.625 z" />
      <path
         id="path843"
         style="font-style:normal;font-variant:normal;font-weight:normal;font-stretch:normal;font-size:192px;font-family:sans-serif;-inkscape-font-specification:'sans-serif, Normal';font-variant-ligatures:normal;font-variant-caps:normal;font-variant-numeric:normal;font-feature-settings:normal;text-align:center;writing-mode:lr-tb;text-anchor:middle"
         d="m 369.72363,380.30414 h -0.9375 q -2.90625,-0.84375 -7.59375,-1.6875 -4.6875,-0.9375 -8.25,-0.9375 -11.34375,0 -16.5,5.0625 -5.0625,4.96875 -5.0625,18.09375 v 3.5625 h 31.78125 v 14.8125 h -31.21875 v 89.90625 h -17.625 v -89.90625 h -11.90625 v -14.8125 h 11.90625 v -3.46875 q 0,-18.65625 9.28125,-28.59375 9.28125,-10.03125 26.8125,-10.03125 5.90625,0 10.59375,0.5625 4.78125,0.5625 8.71875,1.3125 z" />
      <path
         id="path845"
         style="font-style:normal;font-variant:normal;font-weight:normal;font-stretch:normal;font-size:192px;font-family:sans-serif;-inkscape-font-specification:'sans-serif, Normal';font-variant-ligatures:normal;font-variant-caps:normal;font-variant-numeric:normal;font-feature-settings:normal;text-align:center;writing-mode:lr-tb;text-anchor:middle"
         d="m 468.53613,458.58539 h -77.15625 q 0,9.65625 2.90625,16.875 2.90625,7.125 7.96875,11.71875 4.875,4.5 11.53125,6.75 6.75,2.25 14.8125,2.25 10.6875,0 21.46875,-4.21875 10.875,-4.3125 15.46875,-8.4375 h 0.9375 v 19.21875 q -8.90625,3.75 -18.1875,6.28125 -9.28125,2.53125 -19.5,2.53125 -26.0625,0 -40.6875,-14.0625 -14.625,-14.15625 -14.625,-40.125 0,-25.6875 13.96875,-40.78125 14.0625,-15.09375 36.9375,-15.09375 21.1875,0 32.625,12.375 11.53125,12.375 11.53125,35.15625 z m -17.15625,-13.5 q -0.0937,-13.875 -7.03125,-21.46875 -6.84375,-7.59375 -20.90625,-7.59375 -14.15625,0 -22.59375,8.34375 -8.34375,8.34375 -9.46875,20.71875 z" />
      <path
         id="path847"
         style="font-style:normal;font-variant:normal;font-weight:normal;font-stretch:normal;font-size:192px;font-family:sans-serif;-inkscape-font-specification:'sans-serif, Normal';font-variant-ligatures:normal;font-variant-caps:normal;font-variant-numeric:normal;font-feature-settings:normal;text-align:center;writing-mode:lr-tb;text-anchor:middle"
         d="m 582.81738,509.11664 h -17.625 v -59.625 q 0,-7.21875 -0.84375,-13.5 -0.84375,-6.375 -3.09375,-9.9375 -2.34375,-3.9375 -6.75,-5.8125 -4.40625,-1.96875 -11.4375,-1.96875 -7.21875,0 -15.09375,3.5625 -7.875,3.5625 -15.09375,9.09375 v 78.1875 h -17.625 V 404.39789 h 17.625 v 11.625 q 8.25,-6.84375 17.0625,-10.6875 8.8125,-3.84375 18.09375,-3.84375 16.96875,0 25.875,10.21875 8.90625,10.21875 8.90625,29.4375 z" />
      <path
         id="path849"
         style="font-style:normal;font-variant:normal;font-weight:normal;font-stretch:normal;font-size:192px;font-family:sans-serif;-inkscape-font-specification:'sans-serif, Normal';font-variant-ligatures:normal;font-variant-caps:normal;font-variant-numeric:normal;font-feature-settings:normal;text-align:center;writing-mode:lr-tb;text-anchor:middle"
         d="m 635.69238,386.86664 h -19.875 v -18.28125 h 19.875 z m -1.125,122.25 h -17.625 V 404.39789 h 17.625 z" />
    </g>
  </g>
</svg>
