<?xml version="1.0" encoding="utf-8"?>
<!-- Generator: Adobe Illustrator 16.2.0, SVG Export Plug-In . SVG Version: 6.00 Build 0)  -->
<!DOCTYPE svg PUBLIC "-//W3C//DTD SVG 1.1//EN" "http://www.w3.org/Graphics/SVG/1.1/DTD/svg11.dtd">
<svg version="1.1" id="图层_1" xmlns="http://www.w3.org/2000/svg" xmlns:xlink="http://www.w3.org/1999/xlink" x="0px" y="0px"
	 width="1000px" height="500px" viewBox="0 0 1000 500" enable-background="new 0 0 1000 500" xml:space="preserve">
<path fill="#FFEB3B" d="M1000,460c0,22.092-17.908,40-40,40H40c-22.091,0-40-17.908-40-40V40C0,17.909,17.909,0,40,0h920
	c22.092,0,40,17.909,40,40V460z"/>
<g>
	<path d="M147,139.798h27.9V336.3h96.001V360H147V139.798z"/>
	<path d="M303,145.198c0-10.5,7.5-17.7,18.3-17.7s18.3,7.2,18.3,17.7c0,11.1-7.5,18.3-18.3,18.3S303,156.298,303,145.198z
		 M307.5,197.098h27.3V360h-27.3V197.098z"/>
	<path d="M394.498,219.298h-22.2v-20.7l22.2-1.5v-26.1c0-33,15-53.701,47.401-53.701c9.9,0,19.8,2.1,27.3,5.4l-6,20.7
		c-6-2.7-12.6-4.2-18.3-4.2c-15.6,0-23.101,11.1-23.101,32.1v25.8h34.501v22.2h-34.501V360h-27.3V219.298z"/>
	<path d="M471.901,278.699c0-52.801,35.701-85.801,73.501-85.801c41.4,0,64.801,30,64.801,76.5c0,6-0.6,11.701-1.201,15.601h-109.8
		c1.8,34.801,23.099,57.001,54,57.001c15.9,0,28.801-4.801,40.801-12.9l9.9,18c-14.4,9.301-31.801,16.801-54,16.801
		C506.701,363.9,471.901,332.4,471.901,278.699z M586.203,265.199c0-32.701-15-50.401-40.502-50.401
		c-23.1,0-43.5,18.601-46.799,50.401H586.203z"/>
	<path d="M650.396,197.098h22.5l2.4,23.4h0.9c15.6-15.3,32.4-27.6,54.6-27.6c34.201,0,49.801,22.2,49.801,63.9V360h-27.301v-99.602
		c0-30.6-9.299-43.5-30.9-43.5c-16.799,0-28.199,8.4-44.699,24.9V360h-27.301V197.098z"/>
	<path d="M829.195,145.198c0-10.5,7.5-17.7,18.299-17.7c10.801,0,18.301,7.2,18.301,17.7c0,11.1-7.5,18.3-18.301,18.3
		C836.695,163.498,829.195,156.298,829.195,145.198z M833.695,197.098h27.299V360h-27.299V197.098z"/>
</g>
<g>
</g>
<g>
</g>
<g>
</g>
<g>
</g>
<g>
</g>
<g>
</g>
<g>
</g>
<g>
</g>
<g>
</g>
<g>
</g>
<g>
</g>
<g>
</g>
<g>
</g>
<g>
</g>
<g>
</g>
</svg>
