<?xml version="1.0" encoding="UTF-8" standalone="no"?>
<svg
   xmlns:dc="http://purl.org/dc/elements/1.1/"
   xmlns:cc="http://creativecommons.org/ns#"
   xmlns:rdf="http://www.w3.org/1999/02/22-rdf-syntax-ns#"
   xmlns:svg="http://www.w3.org/2000/svg"
   xmlns="http://www.w3.org/2000/svg"
   xmlns:sodipodi="http://sodipodi.sourceforge.net/DTD/sodipodi-0.dtd"
   xmlns:inkscape="http://www.inkscape.org/namespaces/inkscape"
   id="图层_1"
   data-name="图层 1"
   viewBox="0 0 696.28 883.62"
   version="1.1"
   sodipodi:docname="00.svg"
   inkscape:version="0.92.4 (5da689c313, 2019-01-14)">
  <metadata
     id="metadata19">
    <rdf:RDF>
      <cc:Work
         rdf:about="">
        <dc:format>image/svg+xml</dc:format>
        <dc:type
           rdf:resource="http://purl.org/dc/dcmitype/StillImage" />
      </cc:Work>
    </rdf:RDF>
  </metadata>
  <sodipodi:namedview
     pagecolor="#ffffff"
     bordercolor="#666666"
     borderopacity="1"
     objecttolerance="10"
     gridtolerance="10"
     guidetolerance="10"
     inkscape:pageopacity="0"
     inkscape:pageshadow="2"
     inkscape:window-width="1920"
     inkscape:window-height="1017"
     id="namedview17"
     showgrid="false"
     inkscape:zoom="2.1366651"
     inkscape:cx="473.4532"
     inkscape:cy="80.388083"
     inkscape:window-x="-8"
     inkscape:window-y="-8"
     inkscape:window-maximized="1"
     inkscape:current-layer="图层_1" />
  <defs
     id="defs4">
    <style
       id="style2">.cls-1{fill:none;stroke:#000;stroke-miterlimit:10;stroke-width:10px;}</style>
  </defs>
  <title
     id="title6">00</title>
  <path
     class="cls-1"
     d="M280.12,993.6C282,981,283,968,284,955c2-22,6-43,10-66,11-54,20-104,37-156a7.58,7.58,0,0,0-2-4c-18-10-35-16-53-27-2-2-4-4-7-5l-3-3c-1-1-3-1-4-2-3-3-5-6-8-8-10-5-17-13-24-21-27-28-47-59-62-94-17-44-24-90-23-137,1-12,2-24,4-37,2-12,5-24,8-36,4-11,8-21,12-32,7-17,19-30,28-46,1-1,0-3,1-4,16-21,26-44,49-57,21-21,43-38,68-55,16-10,31-17,47-24,9-3,17-6,26-9a413.2,413.2,0,0,1,61-13c13-2,25-2,38-3,14-1,29,1,43,2,19,2,36,7,55,11,12,3,23,7,34,11a388.65,388.65,0,0,1,86,49c10,7,19,16,29,24,6,6,11,12,17,18,20,24,37,48,49,76,19,47,33,96,31,147-3,76-29,150-82,207a369.85,369.85,0,0,1-28,28c-14,10-26,19-40,29-6,3-15,5-14,13,3,16,10,30,13,46,1,4,1,8,5,11,7,32,13,63,20,96,3,13,4,26,7,39,3,22,5,44,7.73,65.77"
     transform="translate(-139.91 -110.73)"
     id="path8" />
  <path
     class="cls-1"
     d="M417.5,536.5c.6,20.2,12.21,36.7,26,40,18.22,4.36,44-13.38,46-44-.21,27.9,23.42,46.23,42,43,15.78-2.74,30.06-21.39,28-44"
     transform="translate(-139.91 -110.73)"
     id="path10" />
  <line
     class="cls-1"
     x1="120.59"
     y1="343.77"
     x2="277.59"
     y2="292.77"
     id="line12" />
  <line
     class="cls-1"
     x1="412.59"
     y1="287.77"
     x2="576.59"
     y2="338.77"
     id="line14" />
  <rect
     id="rect3754"
     width="477.87659"
     height="7.2806678"
     x="119.13821"
     y="876.33936"
     style="fill:#ffffff" />
</svg>
