<?xml version="1.0" encoding="utf-8"?>
<!-- Generator: Adobe Illustrator 16.2.0, SVG Export Plug-In . SVG Version: 6.00 Build 0)  -->
<!DOCTYPE svg PUBLIC "-//W3C//DTD SVG 1.1//EN" "http://www.w3.org/Graphics/SVG/1.1/DTD/svg11.dtd">
<svg version="1.1" id="图层_1" xmlns="http://www.w3.org/2000/svg" xmlns:xlink="http://www.w3.org/1999/xlink" x="0px" y="0px"
	 width="1000px" height="500px" viewBox="0 0 1000 500" enable-background="new 0 0 1000 500" xml:space="preserve">
<g>
	<path d="M76.424,102.529c-15.225,28.875-32.55,55.124-49.35,75.074c-7.35-6.3-23.625-16.275-33.075-21.525
		C27.074,121.954,54.899,69.455,71.174,17.48l37.274,9.45c-4.2,14.175-9.975,28.35-16.274,42h131.248v33.6h-80.849
		c11.55,21,22.049,44.099,27.299,60.374l-34.649,12.6c-4.725-18.375-18.375-48.299-32.024-72.974H76.424z M389.32,460.05
		c25.725,0,29.924-9.975,33.075-57.749c9.45,6.825,24.674,12.6,36.224,15.225c-5.25,59.85-17.85,76.649-67.199,76.649H272.247
		c-58.799,0-75.074-12.075-75.074-59.324v-42L9.225,409.126l-4.2-34.65l192.148-16.274v-54.074L34.424,318.302l-3.675-33.075
		l166.423-14.175v-47.249c-49.35,5.25-99.224,8.925-146.473,11.55c-1.05-9.45-5.25-23.1-8.925-32.024
		c124.948-8.4,269.847-23.625,353.846-44.1l21.525,31.5c-49.875,11.55-113.924,21.525-181.123,28.875v48.3l180.073-15.75
		l3.675,32.55l-183.748,15.75v54.599l227.322-19.425l4.2,33.6l-231.522,19.95v45.149c0,21,5.775,25.725,38.325,25.725H389.32z
		 M281.171,102.529c-14.175,26.774-32.024,50.399-49.875,68.774c-6.825-5.775-23.625-16.8-32.549-22.05
		c34.125-32.024,61.949-80.849,77.174-131.773l38.325,8.925c-4.725,14.175-9.975,28.875-15.75,42.524h163.798v33.6H358.346
		c9.975,16.274,19.425,34.125,23.625,46.199l-34.125,12.6c-5.25-15.75-17.325-39.375-28.35-58.799H281.171z"/>
	<path d="M700.123,372.376c2.625,10.5,8.398,25.725,12.6,33.6c-87.15,61.949-100.799,72.449-108.674,82.424v0.525
		c-4.201-8.4-14.701-22.575-21.525-28.875c9.449-7.875,24.676-25.199,24.676-50.924V221.703H524.25v-37.799h121.273V409.65
		L700.123,372.376z M646.047,140.854c-16.273-22.575-51.973-58.799-80.848-83.999l26.773-23.625
		c27.826,24.15,64.574,58.274,82.426,80.324L646.047,140.854z M922.719,453.75c32.551,0,37.801-13.125,40.951-87.149
		c9.449,6.825,26.248,13.65,37.799,16.275c-6.301,85.049-18.9,108.674-76.125,108.674H805.121
		c-58.799,0-77.174-13.125-77.174-63.524V227.478h197.922V95.179H717.973V56.854h246.221v235.197h-38.324v-27.3H767.322v163.273
		c0,21,6.824,25.725,40.424,25.725H922.719z"/>
</g>
<g>
</g>
<g>
</g>
<g>
</g>
<g>
</g>
<g>
</g>
<g>
</g>
<g>
</g>
<g>
</g>
<g>
</g>
<g>
</g>
<g>
</g>
<g>
</g>
<g>
</g>
<g>
</g>
<g>
</g>
</svg>
