<?xml version="1.0" encoding="utf-8"?>
<!-- Generator: Adobe Illustrator 16.2.0, SVG Export Plug-In . SVG Version: 6.00 Build 0)  -->
<!DOCTYPE svg PUBLIC "-//W3C//DTD SVG 1.1//EN" "http://www.w3.org/Graphics/SVG/1.1/DTD/svg11.dtd">
<svg version="1.1" id="图层_1" xmlns="http://www.w3.org/2000/svg" xmlns:xlink="http://www.w3.org/1999/xlink" x="0px" y="0px"
	 width="1000px" height="500px" viewBox="0 0 1000 500" enable-background="new 0 0 1000 500" xml:space="preserve">
<g>
	<path d="M470.694,313.052v30.975H0.3v-30.975h131.773c-4.2-11.55-10.5-24.149-16.8-34.125l19.95-5.774H77.999v-95.024H394.57
		v95.024h-46.2l9.45,2.1c-7.35,13.65-15.75,26.774-23.1,37.8H470.694z M214.497,86.254H16.575v-29.4h197.922V19.055h39.375v37.799
		H456.52v29.4H253.872v36.225h167.473v28.875H53.324v-28.875h161.173V86.254z M68.549,372.901H405.07v125.474h-39.375v-15.75
		H106.874v16.274H68.549V372.901z M106.874,401.251v53.024h258.822v-53.024H106.874z M115.273,246.377h240.447v-41.475H115.273
		V246.377z M153.073,273.152c8.4,12.6,16.275,28.35,19.425,39.899h122.849c6.3-12.075,14.175-27.3,18.9-39.899H153.073z"/>
	<path d="M682.271,419.101c-9.449-21.524-22.574-47.774-39.373-75.6c-29.4,51.45-64.051,92.399-103.424,120.749
		c-5.775-8.925-17.85-22.575-26.25-28.875c40.949-27.3,77.699-71.924,107.623-128.623c-28.875-46.725-61.949-95.024-93.449-135.449
		l27.826-21c27.824,35.174,57.223,76.124,83.998,116.023c19.426-44.625,34.125-95.549,43.049-151.198H526.35V79.955h166.422
		l6.301-1.575l23.625,7.875c-10.5,84.524-31.5,156.973-59.324,216.823c21.523,33.6,38.85,65.099,50.398,90.299L682.271,419.101z
		 M866.02,203.328c0,10.5,0,22.575-1.049,34.649c19.424,106.574,61.424,192.673,140.697,228.372
		c-8.924,7.875-20.475,22.575-25.725,33.075c-64.574-33.6-103.424-95.024-128.623-175.873
		c-17.324,61.424-55.648,124.948-137.549,176.923c-5.773-8.4-19.424-20.475-27.824-26.774
		c133.348-82.425,143.324-194.248,143.324-270.897v-36.75h36.748V203.328z M798.82,134.554
		c-11.023,39.899-26.248,75.599-44.623,103.424c-6.826-6.3-22.576-16.8-31.5-22.05c33.6-46.199,51.975-119.173,62.475-195.298
		l36.748,4.725c-3.674,25.2-7.875,49.875-13.648,73.499H960.52l6.824-1.575l25.725,7.875
		c-9.449,39.899-22.574,86.099-35.174,114.974l-30.975-10.5c7.35-18.9,15.75-47.774,22.574-75.074H798.82z"/>
</g>
<g>
</g>
<g>
</g>
<g>
</g>
<g>
</g>
<g>
</g>
<g>
</g>
<g>
</g>
<g>
</g>
<g>
</g>
<g>
</g>
<g>
</g>
<g>
</g>
<g>
</g>
<g>
</g>
<g>
</g>
</svg>
