<?xml version="1.0" encoding="utf-8"?>
<!-- Generator: Adobe Illustrator 16.2.0, SVG Export Plug-In . SVG Version: 6.00 Build 0)  -->
<!DOCTYPE svg PUBLIC "-//W3C//DTD SVG 1.1//EN" "http://www.w3.org/Graphics/SVG/1.1/DTD/svg11.dtd">
<svg version="1.1" id="图层_1" xmlns="http://www.w3.org/2000/svg" xmlns:xlink="http://www.w3.org/1999/xlink" x="0px" y="0px"
	 width="1000px" height="500px" viewBox="0 0 1000 500" enable-background="new 0 0 1000 500" xml:space="preserve">
<g>
	<path d="M169.948,33.755c-14.175,37.8-33.075,76.124-53.549,112.349v352.271h-38.85V206.478
		c-16.275,23.1-34.125,44.1-51.974,62.474c-3.675-8.925-15.225-30.45-22.575-38.85C54.974,179.703,103.273,101.479,132.673,21.68
		L169.948,33.755z M323.246,144.529v75.074h149.623v36.225H323.246v79.274h156.973v36.749H323.246v127.049h-39.375V144.529h-36.225
		c-22.575,42-48.299,79.799-74.549,109.199c-6.3-6.825-21.524-19.95-30.45-26.25c47.25-48.824,89.774-124.423,115.499-201.072
		l37.274,9.975c-8.4,24.15-18.375,47.774-28.875,70.874h218.397v37.275H323.246z"/>
	<path d="M552.148,271.052h185.324v223.647h-38.326v-23.624H589.424v28.35h-37.275V271.052z M589.424,308.852v124.424h109.723
		V308.852H589.424z M913.869,215.928H628.273V42.155h285.596V215.928z M874.496,79.429H666.072v99.224h208.424V79.429z
		 M989.994,271.052V495.75H951.67v-24.675H832.496v28.35h-37.801V271.052H989.994z M951.67,433.275V308.852H832.496v124.424H951.67z
		"/>
</g>
<g>
</g>
<g>
</g>
<g>
</g>
<g>
</g>
<g>
</g>
<g>
</g>
<g>
</g>
<g>
</g>
<g>
</g>
<g>
</g>
<g>
</g>
<g>
</g>
<g>
</g>
<g>
</g>
<g>
</g>
</svg>
